<svg width="70" height="58" viewBox="0 0 70 58" fill="none" xmlns="http://www.w3.org/2000/svg">
<mask id="mask0_2046_213" style="mask-type:luminance" maskUnits="userSpaceOnUse" x="0" y="-1" width="70" height="59">
<path d="M70 -0.00928116H0V57.9907H70V-0.00928116Z" fill="white"/>
</mask>
<g mask="url(#mask0_2046_213)">
<path d="M2.91258 51.6727C4.15885 52.0428 5.39473 52.2294 6.61793 52.2294C7.84112 52.2294 9.12316 52.0026 10.4617 51.5501C11.8003 51.0955 13.0247 50.3842 14.1336 49.4152C15.2414 48.4462 16.1554 46.9907 16.872 45.0527C17.5874 43.1147 17.9451 40.8242 17.9451 38.1832V4.51815C17.8978 3.44505 17.4466 2.52761 16.5939 1.76479C15.7388 1.00197 14.7118 0.620563 13.5105 0.620563H12.6104V0H27.7814V0.619533H26.8814C25.6801 0.619533 24.6531 0.991664 23.798 1.73387C22.9429 2.4771 22.4929 3.40485 22.4479 4.51815V38.3688C22.4479 41.1737 21.9621 43.6291 20.9927 45.733C20.0234 47.836 18.7991 49.4245 17.3209 50.4976C14.5502 52.4355 11.4784 53.4066 8.10768 53.4066C6.12288 53.4066 4.29848 53.0551 2.63448 52.3551L2.91489 51.6738L2.91258 51.6727ZM14.8272 46.1773H14.2709C13.0235 46.1773 11.9734 45.7856 11.1183 45.0022C10.2633 44.2188 9.83746 43.3116 9.83746 42.2787V5.39746H16.4946V4.54805C16.475 4.15427 16.3815 3.80379 16.2096 3.4801H0V4.09964H0.900084C2.10135 4.09964 3.12837 4.48104 3.9823 5.24386C4.83622 6.00771 5.28626 6.92516 5.33473 7.99826V42.3437C5.28742 43.4168 4.82584 44.3239 3.94883 45.0671C3.07183 45.8093 2.05404 46.1794 0.900084 46.1794H0V46.7989H14.4833C14.6021 46.602 14.7164 46.3969 14.8272 46.1794V46.1773ZM68.3591 56.8228C65.6808 56.8228 62.9782 56.163 60.2549 54.8425C58.9163 54.223 57.3804 53.2643 55.6494 51.9655C53.9162 50.6656 51.9187 49.0049 49.6558 46.9835C47.3929 44.9609 42.267 40.0109 34.2771 32.1322C32.2922 30.152 30.514 28.4202 28.9435 26.9337H29.0127C32.2922 26.9337 35.0629 25.7276 37.3246 23.3144C39.5864 20.9012 40.7184 18.0128 40.7184 14.6513C40.7184 11.2897 39.4825 8.58687 37.0119 6.54478C34.5401 4.50269 31.2733 3.48113 27.2102 3.48113H24.1638C24.0069 3.79863 23.9203 4.14808 23.9007 4.54702V5.39952H26.9344C29.6578 5.44178 31.7718 6.36851 33.272 8.18484C34.7732 10.0012 35.5245 12.4144 35.5245 15.4244C35.5245 19.055 34.1617 21.6548 31.4372 23.2216C30.7436 23.6752 29.8886 24.037 28.8742 24.3051C27.8576 24.5731 26.8987 24.7597 25.9997 24.8627C25.5358 24.9163 24.8366 24.9555 23.9018 24.9803V27.7171C24.0553 27.8625 24.2111 28.014 24.3715 28.1728C25.9882 29.7829 29.2666 33.0321 34.209 37.9214C39.149 42.8106 42.4863 46.1413 44.2172 47.9153C45.9493 49.6873 47.8764 51.3398 50.002 52.8654C51.1571 53.7725 52.311 54.5354 53.4661 55.1539C54.6189 55.7734 55.856 56.3187 57.1715 56.7939C58.487 57.2671 59.7229 57.5866 60.878 57.7526C62.0331 57.9165 63.3602 58 64.8615 58C66.3627 58 68.0821 57.7732 70.0219 57.3196V56.7001C69.4646 56.7826 68.9107 56.8248 68.3568 56.8248L68.3591 56.8228Z" fill="black"/>
</g>
</svg>
