<svg width="1429" height="1599" viewBox="0 0 1429 1599" fill="none" xmlns="http://www.w3.org/2000/svg">
<rect x="100" y="262" width="1229" height="1075" rx="45" fill="#D14B4B"/>
<mask id="mask0_2046_315" style="mask-type:alpha" maskUnits="userSpaceOnUse" x="1003" y="444" width="655" height="711">
<mask id="path-2-outside-1_2046_315" maskUnits="userSpaceOnUse" x="1002.92" y="444" width="655" height="711" fill="black">
<rect fill="white" x="1002.92" y="444" width="655" height="711"/>
<path d="M1330.46 621.77L1350.99 445L1350.83 623.166L1391.56 450.584L1371.04 627.354L1431.34 461.578L1390.6 634.334L1469.51 477.981L1409.05 643.757L1505.44 499.444L1426.37 655.798L1538.48 525.794L1442.25 669.933L1568.47 556.332L1456.2 686.161L1594.61 590.709L1468.23 704.309L1616.58 628.401L1478.17 723.854L1634.07 668.711L1485.71 744.619L1646.74 711.115L1490.84 766.257L1654.43 754.915L1493.41 788.245L1657 799.413L1493.41 810.581L1654.43 843.911L1490.84 832.743L1646.74 887.711L1485.71 854.381L1634.07 930.289L1478.17 875.146L1616.58 970.599L1468.23 894.691L1594.61 1008.29L1456.2 912.664L1568.47 1042.67L1442.25 928.893L1538.48 1073.21L1426.37 943.202L1505.44 1099.38L1409.05 955.068L1469.51 1120.84L1390.6 964.666L1431.34 1137.25L1371.04 971.471L1391.56 1148.42L1350.83 975.659L1350.99 1154L1330.46 977.055L1309.93 1154V975.659L1269.19 1148.42L1289.88 971.471L1229.58 1137.25L1270.31 964.666L1191.41 1120.84L1251.87 955.068L1155.48 1099.38L1234.55 943.202L1122.28 1073.21L1218.67 928.893L1092.45 1042.67L1204.72 912.664L1066.31 1008.29L1192.69 894.691L1044.33 970.599L1182.75 875.146L1026.85 930.289L1175.21 854.381L1014.18 887.711L1170.07 832.743L1006.48 843.911L1167.51 810.581L1003.92 799.413L1167.51 788.245L1006.48 754.915L1170.07 766.257L1014.18 711.115L1175.21 744.619L1026.85 668.711L1182.75 723.854L1044.33 628.401L1192.69 704.309L1066.31 590.709L1204.72 686.161L1092.45 556.332L1218.67 669.933L1122.28 525.794L1234.55 655.798L1155.48 499.444L1251.87 643.757L1191.41 477.981L1270.31 634.334L1229.58 461.578L1289.88 627.354L1269.19 450.584L1309.93 623.166V445L1330.46 621.77Z"/>
</mask>
<path d="M1330.46 621.77L1350.99 445L1350.83 623.166L1391.56 450.584L1371.04 627.354L1431.34 461.578L1390.6 634.334L1469.51 477.981L1409.05 643.757L1505.44 499.444L1426.37 655.798L1538.48 525.794L1442.25 669.933L1568.47 556.332L1456.2 686.161L1594.61 590.709L1468.23 704.309L1616.58 628.401L1478.17 723.854L1634.07 668.711L1485.71 744.619L1646.74 711.115L1490.84 766.257L1654.43 754.915L1493.41 788.245L1657 799.413L1493.41 810.581L1654.43 843.911L1490.84 832.743L1646.74 887.711L1485.71 854.381L1634.07 930.289L1478.17 875.146L1616.58 970.599L1468.23 894.691L1594.61 1008.29L1456.2 912.664L1568.47 1042.67L1442.25 928.893L1538.48 1073.21L1426.37 943.202L1505.44 1099.38L1409.05 955.068L1469.51 1120.84L1390.6 964.666L1431.34 1137.25L1371.04 971.471L1391.56 1148.42L1350.83 975.659L1350.99 1154L1330.46 977.055L1309.93 1154V975.659L1269.19 1148.42L1289.88 971.471L1229.58 1137.25L1270.31 964.666L1191.41 1120.84L1251.87 955.068L1155.48 1099.38L1234.55 943.202L1122.28 1073.21L1218.67 928.893L1092.45 1042.67L1204.72 912.664L1066.31 1008.29L1192.69 894.691L1044.33 970.599L1182.75 875.146L1026.85 930.289L1175.21 854.381L1014.18 887.711L1170.07 832.743L1006.48 843.911L1167.51 810.581L1003.92 799.413L1167.51 788.245L1006.48 754.915L1170.07 766.257L1014.18 711.115L1175.21 744.619L1026.85 668.711L1182.75 723.854L1044.33 628.401L1192.69 704.309L1066.31 590.709L1204.72 686.161L1092.45 556.332L1218.67 669.933L1122.28 525.794L1234.55 655.798L1155.48 499.444L1251.87 643.757L1191.41 477.981L1270.31 634.334L1229.58 461.578L1289.88 627.354L1269.19 450.584L1309.93 623.166V445L1330.46 621.77Z" stroke="white" stroke-width="2" stroke-miterlimit="10" mask="url(#path-2-outside-1_2046_315)"/>
</mask>
<g mask="url(#mask0_2046_315)">
<rect x="172.382" y="403.295" width="1158.54" height="769.016" rx="45" fill="black"/>
</g>
<path d="M1058.19 959.349L1104.12 986.597L1058.19 1014.06L1033.06 1063.96L1007.93 1014.06L962 986.597L1007.93 959.349L1033.06 909.23L1058.19 959.349Z" fill="white"/>
<path d="M1180.18 711.493L1262.26 760.184L1180.18 809.265L1135.28 898.433L1090.38 809.265L1008.29 760.184L1090.38 711.493L1135.28 621.934L1180.18 711.493Z" fill="black"/>
</svg>
